<svg id="Layer_1" data-name="Layer 1" xmlns="http://www.w3.org/2000/svg" viewBox="0 0 750 150"><defs><style>.cls-1,.cls-2{fill:#fff;}.cls-1{stroke:#000;stroke-miterlimit:10;}</style></defs><line class="cls-1" x1="193.23" y1="23.61" x2="193.22" y2="23.61"/><polygon class="cls-2" points="114.95 23.61 55.61 126.39 16.23 126.39 75.57 23.61 114.95 23.61"/><polygon class="cls-2" points="193.22 23.61 133.88 126.39 94.63 126.39 153.97 23.61 193.22 23.61 193.22 23.61"/><line class="cls-1" x1="193.23" y1="23.61" x2="193.22" y2="23.61"/><polygon class="cls-2" points="266.93 126.39 227.91 126.39 197.35 73.46 216.85 39.67 266.93 126.39"/><path class="cls-2" d="M306.92,69.08l.66-.06c1.19-.14,2.16-1.12,2.93-3a20.56,20.56,0,0,0,1.29-7.19l.72-18.67a18.59,18.59,0,0,0-.85-6.59c-.62-1.68-1.48-2.58-2.57-2.71l-.6-.06v-.34a4.11,4.11,0,0,1-.06-.92v-.72H321l16.29,30.6,13.85-30.6h4.69v-.07h9v2l-.59.07c-1.14.13-2,1.13-2.57,3A21.38,21.38,0,0,0,361,41l.85,19.13a19.06,19.06,0,0,0,1.46,6.33c.74,1.63,1.67,2.49,2.77,2.58l.66.06v2H347.49v-.72a4.22,4.22,0,0,1,.06-.93v-.33l.66-.06c1.1-.09,2-1,2.57-2.58a19.08,19.08,0,0,0,1-6.39l-.46-23.22L335,71.39h-2.5q-4-7.52-8.45-15t-8.44-15L315,57.87a25,25,0,0,0,.23,4.45,12.57,12.57,0,0,0,.95,3.46,6.59,6.59,0,0,0,1.65,2.31A3.64,3.64,0,0,0,320,69l1,.06a1.22,1.22,0,0,0,.07.33v1.65H306.92Z"/><path class="cls-2" d="M369.89,69.08l.66-.06c1.19-.14,2.12-1.12,2.8-3a21.15,21.15,0,0,0,1-7.19V41.05a21.15,21.15,0,0,0-1-7.19c-.68-1.85-1.61-2.84-2.8-3l-.66-.06v-.34a3.88,3.88,0,0,1-.07-.92v-.72h19v1.64a1.28,1.28,0,0,0-.06.34l-.66.06c-1.19.13-2.13,1.12-2.81,3a21.17,21.17,0,0,0-1,7.19V58.86a21.17,21.17,0,0,0,1,7.19c.68,1.85,1.62,2.83,2.81,3l.66.06a1.16,1.16,0,0,0,.06.33v1.65h-19v-.72a4,4,0,0,1,.07-.93Z"/><path class="cls-2" d="M392,69.08l.59-.06c1.19-.14,2.13-1.12,2.84-3a20.61,20.61,0,0,0,1.05-7.19V41.05a20.61,20.61,0,0,0-1.05-7.19c-.71-1.85-1.65-2.84-2.84-3l-.59-.06v-.34a3.39,3.39,0,0,1-.07-.92v-.72h19.46v1.64a1,1,0,0,0-.07.34l-.66.06c-1.18.13-2.12,1.12-2.8,3a21.17,21.17,0,0,0-1,7.19V68.42h4.75a20.35,20.35,0,0,0,4.84-.56,20.06,20.06,0,0,0,4.39-1.58,16.63,16.63,0,0,0,3.7-2.51,14.24,14.24,0,0,0,2.7-3.26l.92-1.39,1.19.4q-.53,2.31-1.05,5.11t-1,5.11L427,71.06H391.9v-.72a3.48,3.48,0,0,1,.07-.93Z"/><path class="cls-2" d="M431.12,69.08l.6-.06c1.19-.14,2.13-1.12,2.83-3a20.36,20.36,0,0,0,1.06-7.19V41.05a20.36,20.36,0,0,0-1.06-7.19c-.7-1.85-1.64-2.84-2.83-3l-.6-.06v-.34a4.11,4.11,0,0,1-.06-.92v-.72h19.46v1.64a1,1,0,0,0-.07.34l-.66.06c-1.19.13-2.12,1.12-2.8,3a21.17,21.17,0,0,0-1,7.19V68.42h4.75A20.75,20.75,0,0,0,460,66.28a16.57,16.57,0,0,0,3.69-2.51,14.29,14.29,0,0,0,2.71-3.26l.92-1.39,1.19.4q-.52,2.31-1.06,5.11t-1,5.11l-.26,1.32H431.06v-.72a4.22,4.22,0,0,1,.06-.93Z"/><path class="cls-2" d="M470.28,69.08l.6-.06c1.18-.14,2.13-1.12,2.83-3a20.36,20.36,0,0,0,1.06-7.19V41.05a20.36,20.36,0,0,0-1.06-7.19c-.7-1.85-1.65-2.84-2.83-3l-.6-.06v-.34a4.11,4.11,0,0,1-.06-.92v-.72h35.49l.06,1.32c.09,1.49.17,3.12.23,4.88s.14,3.38.23,4.88a1.78,1.78,0,0,1-.59-.07h-.2l-.66-1.25a9.77,9.77,0,0,0-2.41-3,14.85,14.85,0,0,0-3.59-2.24A20.71,20.71,0,0,0,494.29,32a25.44,25.44,0,0,0-5.08-.5h-4.08V48.57a36.5,36.5,0,0,0,8.41-1.22,10.47,10.47,0,0,0,5-2.67l.6-.66a1.35,1.35,0,0,0,.46-.07h1.05V56.62h-.53a2.32,2.32,0,0,1-.52-.07h-.46l-.6-.79q-1.38-1.92-5-3a35.93,35.93,0,0,0-8.44-1.38V68.42h4.08a26.53,26.53,0,0,0,5.15-.49A22.21,22.21,0,0,0,499,66.48,19.82,19.82,0,0,0,503,64.2a14.93,14.93,0,0,0,2.93-2.9l.93-1.25A.56.56,0,0,0,507,60h.53c-.31,1.5-.64,3.12-1,4.88s-.68,3.39-1,4.88l-.26,1.32H470.22v-.72a4.22,4.22,0,0,1,.06-.93Z"/><path class="cls-2" d="M509.89,29.57v-.72h13.78l24,27.24v-15a20.9,20.9,0,0,0-1-7.19c-.68-1.85-1.61-2.84-2.8-3l-.66-.06v-.34a4.11,4.11,0,0,1-.06-.92v-.72h12.2v1.64a1,1,0,0,0-.07.34l-.66.06c-1.18.13-2.12,1.12-2.8,3a21.17,21.17,0,0,0-1,7.19V71.13h-4.09q-3.36-4.29-7.06-8.41t-7.45-8.18q-3.76-4.07-7.49-8.18T517.54,38V58.86a20.61,20.61,0,0,0,1.05,7.19c.71,1.85,1.65,2.83,2.84,3l.59.06a1.22,1.22,0,0,0,.07.33v1.65H510v-2l.66-.06c1.15-.14,2.07-1.12,2.77-3a20.36,20.36,0,0,0,1.06-7.19V41.05a20.36,20.36,0,0,0-1.06-7.19c-.7-1.85-1.62-2.84-2.77-3l-.66-.06v-.34A4.11,4.11,0,0,1,509.89,29.57Z"/><path class="cls-2" d="M557.7,29.57v-.72h13.79l23.94,27.24v-15a21.17,21.17,0,0,0-1-7.19c-.68-1.85-1.62-2.84-2.81-3l-.65-.06v-.34a3.39,3.39,0,0,1-.07-.92v-.72h12.2v1.64a1.28,1.28,0,0,0-.06.34l-.66.06c-1.19.13-2.13,1.12-2.81,3a21.17,21.17,0,0,0-1,7.19V71.13h-4.09q-3.36-4.29-7.06-8.41t-7.45-8.18q-3.76-4.07-7.49-8.18T565.35,38V58.86a20.36,20.36,0,0,0,1.06,7.19c.7,1.85,1.65,2.83,2.83,3l.6.06a1.16,1.16,0,0,0,.06.33v1.65H557.77v-2l.65-.06c1.15-.14,2.07-1.12,2.78-3a20.61,20.61,0,0,0,1-7.19V41.05a20.61,20.61,0,0,0-1-7.19c-.71-1.85-1.63-2.84-2.78-3l-.65-.06v-.34A3.39,3.39,0,0,1,557.7,29.57Z"/><path class="cls-2" d="M606,69.08l.66-.06c1.19-.14,2.12-1.12,2.8-3a21.15,21.15,0,0,0,1-7.19V41.05a21.15,21.15,0,0,0-1-7.19c-.68-1.85-1.61-2.84-2.8-3l-.66-.06v-.34a3.88,3.88,0,0,1-.07-.92v-.72h19v1.64a1.28,1.28,0,0,0-.06.34l-.67.06c-1.18.13-2.12,1.12-2.8,3a21.17,21.17,0,0,0-1,7.19V58.86a21.17,21.17,0,0,0,1,7.19c.68,1.85,1.62,2.83,2.8,3l.67.06a1.16,1.16,0,0,0,.06.33v1.65H606v-.72a4,4,0,0,1,.07-.93Z"/><path class="cls-2" d="M627.29,28.85h19.46v1.64a1.37,1.37,0,0,0-.07.34l-.59.06c-1.19.13-2.12,1.12-2.8,3a21.15,21.15,0,0,0-1,7.19V58.66a9.76,9.76,0,0,0,2.08,6.53c1.39,1.63,3.77,2.44,7.16,2.44a20.81,20.81,0,0,0,5.9-.72,10.59,10.59,0,0,0,3.93-2,7.42,7.42,0,0,0,2.18-3.2,12.77,12.77,0,0,0,.66-4.25l.06-16.95a17.86,17.86,0,0,0-1.42-6.8c-.81-1.71-1.88-2.64-3.2-2.77l-.72-.06v-.34a3.39,3.39,0,0,1-.07-.92v-.72h13.66V29a1.27,1.27,0,0,0-.07.53v1.26l-.72.06c-1.32.13-2.38,1.18-3.17,3.13a20.86,20.86,0,0,0-1.19,7.69V58.46a14.82,14.82,0,0,1-.92,5.35,9.74,9.74,0,0,1-3,4A14.93,14.93,0,0,1,658,70.47a30.48,30.48,0,0,1-8,.92,29.27,29.27,0,0,1-8.41-1,15.23,15.23,0,0,1-5.64-3,10.89,10.89,0,0,1-3.13-4.69,18.59,18.59,0,0,1-1-6.13V41.05a21.17,21.17,0,0,0-1-7.19c-.68-1.85-1.62-2.84-2.8-3l-.66-.06a1,1,0,0,0-.07-.34V28.85Z"/><path class="cls-2" d="M673.94,69.08l.66-.06c1.19-.14,2.17-1.12,2.94-3a20.81,20.81,0,0,0,1.28-7.19l.73-18.67a18.56,18.56,0,0,0-.86-6.59c-.62-1.68-1.47-2.58-2.57-2.71l-.6-.06v-.34a4.11,4.11,0,0,1-.06-.92v-.72H688l16.29,30.6,13.86-30.6h4.68v-.07h9v2l-.6.07c-1.14.13-2,1.13-2.57,3A21.64,21.64,0,0,0,728,41l.86,19.13a19.08,19.08,0,0,0,1.45,6.33c.75,1.63,1.67,2.49,2.77,2.58l.66.06v2H714.51v-.72a4.22,4.22,0,0,1,.06-.93v-.33l.66-.06c1.1-.09,2-1,2.57-2.58a19.08,19.08,0,0,0,1-6.39l-.46-23.22L702,71.39h-2.5q-4-7.52-8.44-15t-8.45-15L682,57.87a25,25,0,0,0,.23,4.45,12.93,12.93,0,0,0,.95,3.46,6.59,6.59,0,0,0,1.65,2.31,3.64,3.64,0,0,0,2.25.93l1,.06a1.16,1.16,0,0,0,.06.33v1.65H673.94Z"/><path class="cls-2" d="M321.37,112h1.85v7a8.88,8.88,0,0,1-3,1.72,11.21,11.21,0,0,1-3.67.6,10,10,0,0,1-4.92-1.2,8.79,8.79,0,0,1-3.44-3.32,9.65,9.65,0,0,1,0-9.5,8.79,8.79,0,0,1,3.44-3.32,10.06,10.06,0,0,1,4.94-1.2,10.73,10.73,0,0,1,3.83.66,7.7,7.7,0,0,1,2.94,2l-1.19,1.22a7.53,7.53,0,0,0-5.5-2.13,8.22,8.22,0,0,0-4,1,7.29,7.29,0,0,0-2.8,2.71,7.6,7.6,0,0,0-1,3.87,7.48,7.48,0,0,0,1,3.85,7.34,7.34,0,0,0,2.79,2.71,8,8,0,0,0,4,1,7.91,7.91,0,0,0,4.76-1.41Z"/><path class="cls-2" d="M353.37,121.06l-4.16-5.86a11.59,11.59,0,0,1-1.46.08h-4.9v5.78h-1.93V102.84h6.83a8.25,8.25,0,0,1,5.47,1.66,5.69,5.69,0,0,1,2,4.58,5.65,5.65,0,0,1-4.16,5.73l4.45,6.25Zm-1.53-8.62a4.7,4.7,0,0,0,0-6.75,6.37,6.37,0,0,0-4.15-1.19h-4.84v9.14h4.84A6.32,6.32,0,0,0,351.84,112.44Z"/><path class="cls-2" d="M375.4,120a8.9,8.9,0,0,1-3.43-3.32,9.68,9.68,0,0,1,0-9.48,8.83,8.83,0,0,1,3.43-3.32,10.57,10.57,0,0,1,9.8,0,8.8,8.8,0,0,1,3.42,3.32,9.65,9.65,0,0,1,0,9.5A8.8,8.8,0,0,1,385.2,120a10.57,10.57,0,0,1-9.8,0Zm8.82-1.49a7.08,7.08,0,0,0,2.73-2.7,8.06,8.06,0,0,0,0-7.74,7.18,7.18,0,0,0-2.73-2.71,7.87,7.87,0,0,0-3.91-1,8,8,0,0,0-3.92,1,7.26,7.26,0,0,0-2.76,2.71,8,8,0,0,0,0,7.74,7.16,7.16,0,0,0,2.76,2.7,7.87,7.87,0,0,0,3.92,1A7.78,7.78,0,0,0,384.22,118.52Z"/><path class="cls-2" d="M408.47,119.19a8.15,8.15,0,0,1-2-5.91V102.84h1.93V113.2a6.84,6.84,0,0,0,1.43,4.74,6.31,6.31,0,0,0,8.31,0,6.84,6.84,0,0,0,1.43-4.74V102.84h1.88v10.44a8.19,8.19,0,0,1-2,5.91,8.51,8.51,0,0,1-11,0Z"/><path class="cls-2" d="M451.81,104.5a6.28,6.28,0,0,1,0,9.15,8.25,8.25,0,0,1-5.47,1.66h-4.9v5.75h-1.92V102.84h6.82A8.25,8.25,0,0,1,451.81,104.5Zm-1.38,7.93a4.11,4.11,0,0,0,1.43-3.35,4.16,4.16,0,0,0-1.43-3.39,6.36,6.36,0,0,0-4.14-1.19h-4.85v9.12h4.85A6.36,6.36,0,0,0,450.43,112.43Z"/></svg>