<svg id="Layer_1" data-name="Layer 1" xmlns="http://www.w3.org/2000/svg" viewBox="0 0 450 250"><defs><style>.cls-1{fill:#fff;}</style></defs><polygon class="cls-1" points="198.37 7.32 139.03 110.1 99.65 110.1 158.99 7.32 198.37 7.32"/><polygon class="cls-1" points="276.64 7.32 217.3 110.1 178.05 110.1 237.39 7.32 276.64 7.32 276.64 7.32"/><line class="cls-1" x1="276.65" y1="7.32" x2="276.64" y2="7.32"/><polygon class="cls-1" points="350.35 110.1 311.32 110.1 280.77 57.17 300.27 23.38 350.35 110.1"/><path class="cls-1" d="M11.42,190.35l.66-.06c1.19-.14,2.16-1.13,2.93-3a20.62,20.62,0,0,0,1.29-7.2L17,161.44a18.59,18.59,0,0,0-.86-6.6c-.62-1.67-1.48-2.58-2.57-2.71l-.6-.06v-.33a4.06,4.06,0,0,1-.07-.93v-.72H25.48l16.3,30.62,13.86-30.62h4.69V150h9v2l-.59.07c-1.14.13-2,1.13-2.57,3a21.18,21.18,0,0,0-.66,7.16l.85,19.14a19.18,19.18,0,0,0,1.46,6.34c.74,1.63,1.67,2.49,2.77,2.58l.66.06v2H52v-.72a4,4,0,0,1,.07-.93v-.33l.66-.06c1.1-.09,2-.95,2.57-2.58a19.14,19.14,0,0,0,1-6.4l-.46-23.24L39.47,192.66H37q-4-7.51-8.45-15t-8.45-15.05l-.59,16.5a26.16,26.16,0,0,0,.23,4.46,13,13,0,0,0,1,3.46,6.59,6.59,0,0,0,1.65,2.31,3.7,3.7,0,0,0,2.24.93l1,.06a.93.93,0,0,0,.07.33v1.65H11.42Z"/><path class="cls-1" d="M74.44,190.35l.66-.06c1.18-.14,2.12-1.13,2.8-3a21.23,21.23,0,0,0,1-7.2V162.3a21.23,21.23,0,0,0-1-7.2c-.68-1.85-1.62-2.84-2.8-3l-.66-.06v-.33a3.53,3.53,0,0,1-.07-.93v-.72h19v1.65a1.22,1.22,0,0,0-.07.33l-.66.06c-1.18.13-2.12,1.12-2.8,3a21.23,21.23,0,0,0-1,7.2v17.82a21.23,21.23,0,0,0,1,7.2c.68,1.84,1.62,2.83,2.8,3l.66.06a1.22,1.22,0,0,0,.07.33v1.65h-19v-.72a3.48,3.48,0,0,1,.07-.93Z"/><path class="cls-1" d="M96.53,190.35l.59-.06c1.19-.14,2.14-1.13,2.84-3a20.65,20.65,0,0,0,1.06-7.2V162.3a20.65,20.65,0,0,0-1.06-7.2c-.7-1.85-1.65-2.84-2.84-3l-.59-.06v-.33a3.53,3.53,0,0,1-.07-.93v-.72h19.47v1.65a1.16,1.16,0,0,0-.06.33l-.66.06c-1.19.13-2.13,1.12-2.81,3a21.23,21.23,0,0,0-1,7.2v27.39h4.75a20.44,20.44,0,0,0,4.85-.56,20.06,20.06,0,0,0,4.39-1.58,16.4,16.4,0,0,0,3.7-2.51,14.13,14.13,0,0,0,2.71-3.27l.92-1.39,1.19.4q-.52,2.31-1.06,5.12t-1,5.11l-.26,1.32H96.46v-.72a3.48,3.48,0,0,1,.07-.93Z"/><path class="cls-1" d="M135.72,190.35l.59-.06c1.19-.14,2.13-1.13,2.84-3a20.68,20.68,0,0,0,1-7.2V162.3a20.68,20.68,0,0,0-1-7.2c-.71-1.85-1.65-2.84-2.84-3l-.59-.06v-.33a3.53,3.53,0,0,1-.07-.93v-.72h19.47v1.65a1.16,1.16,0,0,0-.06.33l-.66.06c-1.19.13-2.13,1.12-2.81,3a21.23,21.23,0,0,0-1,7.2v27.39h4.75a20.76,20.76,0,0,0,9.24-2.14,16.4,16.4,0,0,0,3.7-2.51,14.13,14.13,0,0,0,2.71-3.27l.92-1.39,1.19.4q-.54,2.31-1.06,5.12T171,191l-.26,1.32H135.65v-.72a3.48,3.48,0,0,1,.07-.93Z"/><path class="cls-1" d="M174.9,190.35l.6-.06c1.19-.14,2.13-1.13,2.84-3a20.68,20.68,0,0,0,1-7.2V162.3a20.68,20.68,0,0,0-1-7.2c-.71-1.85-1.65-2.84-2.84-3l-.6-.06v-.33a4.29,4.29,0,0,1-.06-.93v-.72h35.51l.07,1.32c.08,1.49.16,3.12.23,4.88s.14,3.39.23,4.89a2.1,2.1,0,0,1-.59-.07h-.2l-.66-1.25a10.08,10.08,0,0,0-2.41-3,15.47,15.47,0,0,0-3.6-2.25,21.27,21.27,0,0,0-4.49-1.42,25.52,25.52,0,0,0-5.08-.49h-4.09v17.09a36.42,36.42,0,0,0,8.41-1.22,10.46,10.46,0,0,0,5.05-2.67l.6-.66a1.31,1.31,0,0,0,.46-.07h1.05v12.68h-.52a2.33,2.33,0,0,1-.53-.07h-.46l-.6-.79c-.92-1.28-2.6-2.29-5-3a35,35,0,0,0-8.45-1.38v17.09h4.09a26.6,26.6,0,0,0,5.15-.49,22.22,22.22,0,0,0,4.68-1.46,18.79,18.79,0,0,0,3.93-2.27,14.5,14.5,0,0,0,2.94-2.91l.92-1.25a.43.43,0,0,0,.2-.07h.53q-.47,2.25-1,4.89c-.35,1.76-.68,3.39-1,4.88l-.26,1.32H174.84v-.72a4.22,4.22,0,0,1,.06-.93Z"/><path class="cls-1" d="M214.54,150.81v-.72h13.79l24,27.26v-15a21.23,21.23,0,0,0-1-7.2c-.68-1.85-1.62-2.84-2.8-3l-.66-.06v-.33a3.53,3.53,0,0,1-.07-.93v-.72H260v1.65a1.16,1.16,0,0,0-.06.33l-.66.06c-1.19.13-2.13,1.12-2.81,3a21.23,21.23,0,0,0-1,7.2v30.1h-4.1q-3.36-4.29-7.06-8.42t-7.46-8.18q-3.76-4.06-7.49-8.19t-7.1-8.41v20.92a20.65,20.65,0,0,0,1.06,7.2c.7,1.84,1.65,2.83,2.84,3l.59.06a.93.93,0,0,0,.07.33v1.65H214.6v-2l.66-.06c1.15-.14,2.07-1.13,2.77-3a20.42,20.42,0,0,0,1.06-7.2V162.3a20.42,20.42,0,0,0-1.06-7.2c-.7-1.85-1.62-2.84-2.77-3l-.66-.06v-.33A4.29,4.29,0,0,1,214.54,150.81Z"/><path class="cls-1" d="M262.38,150.81v-.72h13.8l24,27.26v-15a21.23,21.23,0,0,0-1-7.2c-.68-1.85-1.62-2.84-2.81-3l-.66-.06v-.33a4.29,4.29,0,0,1-.06-.93v-.72H307.8v1.65a1.22,1.22,0,0,0-.07.33l-.66.06c-1.18.13-2.12,1.12-2.8,3a21.23,21.23,0,0,0-1,7.2v30.1h-4.1q-3.36-4.29-7.06-8.42t-7.46-8.18q-3.76-4.06-7.49-8.19T270,159.2v20.92a20.42,20.42,0,0,0,1.06,7.2c.7,1.84,1.65,2.83,2.84,3l.59.06a.93.93,0,0,0,.07.33v1.65H262.45v-2l.66-.06c1.14-.14,2.07-1.13,2.77-3a20.42,20.42,0,0,0,1.06-7.2V162.3a20.42,20.42,0,0,0-1.06-7.2c-.7-1.85-1.63-2.84-2.77-3l-.66-.06v-.33A4.06,4.06,0,0,1,262.38,150.81Z"/><path class="cls-1" d="M310.76,190.35l.66-.06c1.19-.14,2.12-1.13,2.81-3a21.23,21.23,0,0,0,1-7.2V162.3a21.23,21.23,0,0,0-1-7.2c-.69-1.85-1.62-2.84-2.81-3l-.66-.06v-.33a4.06,4.06,0,0,1-.07-.93v-.72h19v1.65a.93.93,0,0,0-.07.33l-.66.06c-1.19.13-2.12,1.12-2.81,3a21.23,21.23,0,0,0-1,7.2v17.82a21.23,21.23,0,0,0,1,7.2c.69,1.84,1.62,2.83,2.81,3l.66.06a.93.93,0,0,0,.07.33v1.65h-19v-.72a4,4,0,0,1,.07-.93Z"/><path class="cls-1" d="M332,150.09H351.5v1.65a1.22,1.22,0,0,0-.07.33l-.59.06c-1.19.13-2.12,1.12-2.8,3a21,21,0,0,0-1,7.2v17.62a9.79,9.79,0,0,0,2.08,6.54c1.39,1.63,3.77,2.44,7.16,2.44a20.45,20.45,0,0,0,5.91-.73,10.43,10.43,0,0,0,3.93-2,7.48,7.48,0,0,0,2.18-3.2,12.87,12.87,0,0,0,.66-4.26l.06-17a18.11,18.11,0,0,0-1.41-6.8c-.82-1.71-1.89-2.64-3.21-2.77l-.72-.06v-.33a3.53,3.53,0,0,1-.07-.93v-.72h13.67v.19a1.27,1.27,0,0,0-.07.53v1.26l-.73.06c-1.32.13-2.37,1.18-3.17,3.14A20.88,20.88,0,0,0,372.1,163v16.76a14.57,14.57,0,0,1-.93,5.35,9.54,9.54,0,0,1-3,4.06,14.93,14.93,0,0,1-5.38,2.61,30.48,30.48,0,0,1-8.05.92,29.29,29.29,0,0,1-8.42-1,15.23,15.23,0,0,1-5.64-3,10.82,10.82,0,0,1-3.14-4.69,18.7,18.7,0,0,1-1-6.14V162.3a21.23,21.23,0,0,0-1-7.2c-.68-1.85-1.62-2.84-2.81-3l-.66-.06a1.16,1.16,0,0,0-.06-.33v-1.65Z"/><path class="cls-1" d="M378.71,190.35l.66-.06q1.78-.21,2.94-3a20.62,20.62,0,0,0,1.29-7.2l.72-18.68a18.36,18.36,0,0,0-.86-6.6c-.61-1.67-1.47-2.58-2.57-2.71l-.59-.06v-.33a3.53,3.53,0,0,1-.07-.93v-.72h12.54l16.31,30.62,13.86-30.62h4.68V150h9.05v2l-.59.07q-1.72.19-2.58,3a21.7,21.7,0,0,0-.66,7.16l.86,19.14a19.2,19.2,0,0,0,1.45,6.34c.75,1.63,1.67,2.49,2.77,2.58l.66.06v2H419.31v-.72a4.22,4.22,0,0,1,.06-.93v-.33l.66-.06q1.65-.14,2.58-2.58a19.67,19.67,0,0,0,1-6.4l-.46-23.24-16.37,34.59h-2.51q-4-7.51-8.45-15t-8.45-15.05l-.6,16.5a26.1,26.1,0,0,0,.24,4.46,12.67,12.67,0,0,0,.95,3.46,6.59,6.59,0,0,0,1.65,2.31,3.7,3.7,0,0,0,2.25.93l1,.06a1.16,1.16,0,0,0,.06.33v1.65H378.71Z"/><path class="cls-1" d="M33.9,224.28v18.24H32.05V227.93L24.88,240.2H24L16.8,228v14.51H15V224.28h1.59l7.92,13.53,7.85-13.53Z"/><path class="cls-1" d="M63.91,237.65H53.74l-2.18,4.87h-2l8.34-18.24h1.9l8.34,18.24h-2Zm-.71-1.56-4.37-9.8-4.38,9.8Z"/><path class="cls-1" d="M96.69,240.86v1.66H83.79V224.28H96.3V226H85.72v6.49h9.44v1.64H85.72v6.78Z"/><path class="cls-1" d="M115.06,242a7.28,7.28,0,0,1-2.88-1.72l.75-1.49a7.26,7.26,0,0,0,2.64,1.61A9.76,9.76,0,0,0,119,241a6.2,6.2,0,0,0,3.68-.9,2.76,2.76,0,0,0,1.22-2.33,2.36,2.36,0,0,0-.66-1.75,4.48,4.48,0,0,0-1.63-1,25.58,25.58,0,0,0-2.68-.77,29,29,0,0,1-3.29-1,5.62,5.62,0,0,1-2.1-1.48,3.91,3.91,0,0,1-.87-2.68,4.63,4.63,0,0,1,.73-2.52,5.15,5.15,0,0,1,2.24-1.81,9.23,9.23,0,0,1,3.76-.67,10.93,10.93,0,0,1,3.06.43,8.69,8.69,0,0,1,2.59,1.18l-.65,1.54a9.07,9.07,0,0,0-2.45-1.13,8.86,8.86,0,0,0-2.55-.38,5.93,5.93,0,0,0-3.61.92,2.88,2.88,0,0,0-1.22,2.39,2.41,2.41,0,0,0,.67,1.76,4.3,4.3,0,0,0,1.67,1c.67.24,1.56.49,2.69.77a27.6,27.6,0,0,1,3.25,1,5.42,5.42,0,0,1,2.1,1.46,3.87,3.87,0,0,1,.86,2.64,4.49,4.49,0,0,1-.75,2.52,5,5,0,0,1-2.28,1.8,9.55,9.55,0,0,1-3.78.66A11.81,11.81,0,0,1,115.06,242Z"/><path class="cls-1" d="M146.62,226h-6.41v-1.67H155V226h-6.41v16.57h-1.93Z"/><path class="cls-1" d="M183.11,242.52l-4.17-5.86a13.68,13.68,0,0,1-1.46.08h-4.9v5.78h-1.93V224.28h6.83A8.24,8.24,0,0,1,183,226a5.68,5.68,0,0,1,2,4.59,5.64,5.64,0,0,1-4.17,5.73l4.46,6.25Zm-1.54-8.62a4.69,4.69,0,0,0,0-6.76,6.33,6.33,0,0,0-4.14-1.19h-4.85v9.15h4.85A6.27,6.27,0,0,0,181.57,233.9Z"/><path class="cls-1" d="M205.16,241.47a8.86,8.86,0,0,1-3.44-3.32,9.7,9.7,0,0,1,0-9.49,8.79,8.79,0,0,1,3.44-3.32,10.6,10.6,0,0,1,9.8,0,8.92,8.92,0,0,1,3.43,3.33,9.67,9.67,0,0,1,0,9.51,8.9,8.9,0,0,1-3.43,3.32,10.57,10.57,0,0,1-9.8,0ZM214,240a7.07,7.07,0,0,0,2.74-2.71,8.06,8.06,0,0,0,0-7.74,7.13,7.13,0,0,0-2.74-2.71,8.39,8.39,0,0,0-7.83,0,7.19,7.19,0,0,0-2.76,2.71,7.92,7.92,0,0,0,0,7.74,7.12,7.12,0,0,0,2.76,2.71,8.31,8.31,0,0,0,7.83,0Z"/><path class="cls-1" d="M268.29,237.65H258.13l-2.19,4.87h-2l8.34-18.24h1.9l8.34,18.24h-2Zm-.7-1.56-4.38-9.8-4.38,9.8Z"/><path class="cls-1" d="M289.88,226h-6.41v-1.67h14.75V226h-6.41v16.57h-1.93Z"/><path class="cls-1" d="M326.81,240.86v1.66h-12.9V224.28h12.51V226H315.83v6.49h9.44v1.64h-9.44v6.78Z"/><path class="cls-1" d="M343.18,224.28h1.93v16.58h10.22v1.66H343.18Z"/><path class="cls-1" d="M371.08,224.28H373v18.24h-1.93Z"/><path class="cls-1" d="M404.1,240.86v1.66H391.2V224.28h12.51V226H393.13v6.49h9.44v1.64h-9.44v6.78Z"/><path class="cls-1" d="M432.94,242.52l-4.17-5.86a13.83,13.83,0,0,1-1.46.08h-4.9v5.78h-1.93V224.28h6.83a8.24,8.24,0,0,1,5.47,1.67,5.68,5.68,0,0,1,2,4.59,5.64,5.64,0,0,1-4.17,5.73l4.46,6.25Zm-1.54-8.62a4.71,4.71,0,0,0,0-6.76,6.36,6.36,0,0,0-4.14-1.19h-4.85v9.15h4.85A6.31,6.31,0,0,0,431.4,233.9Z"/></svg>