<svg id="Layer_1" data-name="Layer 1" xmlns="http://www.w3.org/2000/svg" viewBox="0 0 750 150"><defs><style>.cls-1{fill:#fff;}</style></defs><polygon class="cls-1" points="114.79 23.61 55.45 126.39 16.07 126.39 75.42 23.61 114.79 23.61"/><polygon class="cls-1" points="193.06 23.61 133.72 126.39 94.47 126.39 153.81 23.61 193.06 23.61 193.06 23.61"/><line class="cls-1" x1="193.07" y1="23.61" x2="193.06" y2="23.61"/><polygon class="cls-1" points="266.77 126.39 227.75 126.39 197.19 73.46 216.7 39.67 266.77 126.39"/><path class="cls-1" d="M306.76,69l.66-.06q1.79-.21,2.94-3a20.41,20.41,0,0,0,1.28-7.2l.73-18.68a18.59,18.59,0,0,0-.86-6.6c-.61-1.67-1.47-2.58-2.57-2.71l-.6-.06v-.33a4.29,4.29,0,0,1-.06-.93v-.73h12.54l16.3,30.63L351,28.73h4.68v-.06h9.05v2l-.6.07c-1.14.13-2,1.13-2.57,3a21.7,21.7,0,0,0-.66,7.16L361.75,60a19.2,19.2,0,0,0,1.45,6.34c.75,1.63,1.67,2.49,2.77,2.58l.66.06v2H347.36v-.72a4.22,4.22,0,0,1,.06-.93V69l.66-.06q1.65-.14,2.58-2.58a19.67,19.67,0,0,0,1-6.4l-.46-23.24L334.81,71.31h-2.5q-4-7.52-8.45-15t-8.45-15l-.6,16.5a27.22,27.22,0,0,0,.23,4.46,13,13,0,0,0,1,3.46A6.59,6.59,0,0,0,317.65,68a3.7,3.7,0,0,0,2.25.93l1,.06a1.16,1.16,0,0,0,.06.33V71H306.76Z"/><path class="cls-1" d="M369.78,69l.66-.06c1.19-.14,2.12-1.13,2.8-3a21,21,0,0,0,1-7.2V41a21,21,0,0,0-1-7.2c-.68-1.85-1.61-2.84-2.8-3l-.66-.06v-.33a3.53,3.53,0,0,1-.07-.93v-.73h19v1.66a1.16,1.16,0,0,0-.06.33l-.66.06c-1.19.13-2.13,1.12-2.81,3a21.23,21.23,0,0,0-1,7.2V58.77a21.23,21.23,0,0,0,1,7.2c.68,1.84,1.62,2.83,2.81,3l.66.06a1.16,1.16,0,0,0,.06.33V71h-19v-.72a3.48,3.48,0,0,1,.07-.93Z"/><path class="cls-1" d="M391.87,69l.59-.06c1.19-.14,2.14-1.13,2.84-3a20.42,20.42,0,0,0,1.06-7.2V41a20.42,20.42,0,0,0-1.06-7.2c-.7-1.85-1.65-2.84-2.84-3l-.59-.06v-.33a4.06,4.06,0,0,1-.07-.93v-.73h19.48v1.66a.93.93,0,0,0-.07.33l-.66.06c-1.19.13-2.12,1.12-2.8,3a21,21,0,0,0-1,7.2V68.34h4.76a20.76,20.76,0,0,0,9.24-2.14,16.91,16.91,0,0,0,3.69-2.51,13.88,13.88,0,0,0,2.71-3.27L428,59l1.19.4q-.53,2.31-1.05,5.12t-1,5.11L426.92,71H391.8v-.72a4,4,0,0,1,.07-.93Z"/><path class="cls-1" d="M431.06,69l.59-.06c1.19-.14,2.14-1.13,2.84-3a20.65,20.65,0,0,0,1.06-7.2V41a20.65,20.65,0,0,0-1.06-7.2c-.7-1.85-1.65-2.84-2.84-3l-.59-.06v-.33a3.53,3.53,0,0,1-.07-.93v-.73h19.48v1.66a.93.93,0,0,0-.07.33l-.66.06c-1.19.13-2.12,1.12-2.81,3a21.23,21.23,0,0,0-1,7.2V68.34h4.75a20.76,20.76,0,0,0,9.25-2.14,16.91,16.91,0,0,0,3.69-2.51,14.13,14.13,0,0,0,2.71-3.27l.92-1.39,1.19.4q-.53,2.31-1.06,5.12t-1,5.11L466.11,71H431v-.72a3.48,3.48,0,0,1,.07-.93Z"/><path class="cls-1" d="M470.25,69l.59-.06c1.19-.14,2.13-1.13,2.84-3a20.65,20.65,0,0,0,1.06-7.2V41a20.65,20.65,0,0,0-1.06-7.2c-.71-1.85-1.65-2.84-2.84-3l-.59-.06v-.33a3.53,3.53,0,0,1-.07-.93v-.73h35.51l.07,1.33c.09,1.49.17,3.12.23,4.88s.14,3.39.23,4.88a2.17,2.17,0,0,1-.59-.06h-.2l-.66-1.26a10,10,0,0,0-2.41-3,15,15,0,0,0-3.6-2.24,20.71,20.71,0,0,0-4.49-1.42,25.45,25.45,0,0,0-5.08-.49H485.1V48.47a36.51,36.51,0,0,0,8.42-1.22,10.51,10.51,0,0,0,5.05-2.67l.59-.66a1.31,1.31,0,0,0,.46-.07h1.06V56.53h-.53a2.41,2.41,0,0,1-.53-.07h-.46l-.59-.79a9.45,9.45,0,0,0-5-3,34.93,34.93,0,0,0-8.45-1.38V68.34h4.09a26.53,26.53,0,0,0,5.15-.49A22.32,22.32,0,0,0,499,66.39,19,19,0,0,0,503,64.12a14.5,14.5,0,0,0,2.94-2.91l.93-1.25a.4.4,0,0,0,.19-.07h.53q-.46,2.25-1,4.89c-.35,1.76-.68,3.39-1,4.88L505.3,71H470.18v-.72a3.48,3.48,0,0,1,.07-.93Z"/><path class="cls-1" d="M509.88,29.46v-.73h13.8l24,27.27V41a21,21,0,0,0-1-7.2c-.68-1.85-1.61-2.84-2.8-3l-.66-.06v-.33a3.53,3.53,0,0,1-.07-.93v-.73H555.3v1.66a.93.93,0,0,0-.07.33l-.66.06c-1.19.13-2.12,1.12-2.81,3a21.23,21.23,0,0,0-1,7.2v30.1h-4.09q-3.37-4.29-7.07-8.42t-7.46-8.18q-3.75-4.06-7.49-8.19t-7.09-8.42V58.77a20.68,20.68,0,0,0,1.05,7.2c.71,1.84,1.65,2.83,2.84,3l.6.06a1.16,1.16,0,0,0,.06.33V71H510V69l.66-.06c1.14-.14,2.06-1.13,2.77-3a20.68,20.68,0,0,0,1-7.2V41a20.68,20.68,0,0,0-1-7.2c-.71-1.85-1.63-2.84-2.77-3l-.66-.06v-.33A3.53,3.53,0,0,1,509.88,29.46Z"/><path class="cls-1" d="M557.73,29.46v-.73h13.79l24,27.27V41a21,21,0,0,0-1-7.2c-.68-1.85-1.62-2.84-2.8-3l-.66-.06v-.33a3.53,3.53,0,0,1-.07-.93v-.73h12.21v1.66a1.16,1.16,0,0,0-.06.33l-.66.06c-1.19.13-2.13,1.12-2.81,3a21.23,21.23,0,0,0-1,7.2v30.1H594.5q-3.37-4.29-7.07-8.42T580,54.45q-3.75-4.06-7.49-8.19t-7.1-8.42V58.77a20.65,20.65,0,0,0,1.06,7.2c.71,1.84,1.65,2.83,2.84,3l.59.06a1.22,1.22,0,0,0,.07.33V71H557.79V69l.66-.06c1.15-.14,2.07-1.13,2.78-3a20.68,20.68,0,0,0,1-7.2V41a20.68,20.68,0,0,0-1-7.2c-.71-1.85-1.63-2.84-2.78-3l-.66-.06v-.33A4.29,4.29,0,0,1,557.73,29.46Z"/><path class="cls-1" d="M606.1,69l.66-.06c1.19-.14,2.13-1.13,2.81-3a21.23,21.23,0,0,0,1-7.2V41a21.23,21.23,0,0,0-1-7.2c-.68-1.85-1.62-2.84-2.81-3l-.66-.06v-.33a4.29,4.29,0,0,1-.06-.93v-.73h19v1.66a.93.93,0,0,0-.07.33l-.66.06c-1.19.13-2.12,1.12-2.8,3a21,21,0,0,0-1,7.2V58.77a21,21,0,0,0,1,7.2c.68,1.84,1.61,2.83,2.8,3L625,69a.93.93,0,0,0,.07.33V71H606v-.72a4.22,4.22,0,0,1,.06-.93Z"/><path class="cls-1" d="M627.37,28.73h19.48v1.66a.93.93,0,0,0-.07.33l-.6.06c-1.18.13-2.12,1.12-2.8,3a21.23,21.23,0,0,0-1,7.2V58.57a9.79,9.79,0,0,0,2.07,6.54q2.09,2.44,7.17,2.44a20.54,20.54,0,0,0,5.91-.73,10.46,10.46,0,0,0,3.92-2,7.48,7.48,0,0,0,2.18-3.2,12.87,12.87,0,0,0,.66-4.26l.07-17a18.09,18.09,0,0,0-1.42-6.8c-.82-1.71-1.88-2.64-3.2-2.77l-.73-.06v-.33a4.06,4.06,0,0,1-.07-.93v-.73h13.67v.2a1.47,1.47,0,0,0-.07.53v1.26l-.72.06q-2,.2-3.17,3.14a20.86,20.86,0,0,0-1.19,7.69V58.37a14.79,14.79,0,0,1-.92,5.35,9.64,9.64,0,0,1-3,4.06,14.85,14.85,0,0,1-5.38,2.61,30.48,30.48,0,0,1-8,.92,29.34,29.34,0,0,1-8.42-1,15.23,15.23,0,0,1-5.64-3,10.91,10.91,0,0,1-3.14-4.69,19,19,0,0,1-1-6.14V41a21,21,0,0,0-1-7.2c-.68-1.85-1.61-2.84-2.8-3l-.66-.06a.93.93,0,0,0-.07-.33V28.73Z"/><path class="cls-1" d="M674.05,69l.66-.06q1.78-.21,2.94-3a20.62,20.62,0,0,0,1.29-7.2l.72-18.68a18.61,18.61,0,0,0-.85-6.6c-.62-1.67-1.48-2.58-2.58-2.71l-.59-.06v-.33a3.53,3.53,0,0,1-.07-.93v-.73h12.55l16.3,30.63,13.86-30.63H723v-.06h9v2l-.59.07c-1.15.13-2,1.13-2.58,3a21.7,21.7,0,0,0-.66,7.16L729,60a19.46,19.46,0,0,0,1.45,6.34c.75,1.63,1.68,2.49,2.78,2.58l.66.06v2H714.65v-.72a3.48,3.48,0,0,1,.07-.93V69l.66-.06c1.1-.09,2-1,2.57-2.58a19.14,19.14,0,0,0,1-6.4l-.46-23.24L702.11,71.31H699.6q-4-7.52-8.45-15t-8.45-15l-.59,16.5a25.17,25.17,0,0,0,.23,4.46,13,13,0,0,0,1,3.46A6.59,6.59,0,0,0,685,68a3.67,3.67,0,0,0,2.24.93l1,.06a.93.93,0,0,0,.07.33V71h-14.2Z"/><path class="cls-1" d="M325.71,102.93v18.24h-1.85V106.58l-7.17,12.28h-.91l-7.17-12.2v14.51h-1.85V102.93h1.59l7.92,13.53,7.85-13.53Z"/><path class="cls-1" d="M355.72,116.3H345.55l-2.19,4.87h-2l8.34-18.24h1.9l8.34,18.24h-2Zm-.71-1.56-4.38-9.8-4.37,9.8Z"/><path class="cls-1" d="M388.5,119.51v1.66H375.6V102.93h12.51v1.67H377.53v6.49H387v1.64h-9.43v6.78Z"/><path class="cls-1" d="M406.87,120.68A7,7,0,0,1,404,119l.75-1.49a7.3,7.3,0,0,0,2.63,1.61,9.86,9.86,0,0,0,3.39.61,6.22,6.22,0,0,0,3.68-.9,2.78,2.78,0,0,0,1.22-2.33,2.36,2.36,0,0,0-.66-1.75,4.57,4.57,0,0,0-1.63-1,25.17,25.17,0,0,0-2.69-.77,29.38,29.38,0,0,1-3.28-1,5.47,5.47,0,0,1-2.1-1.48,3.91,3.91,0,0,1-.87-2.68,4.55,4.55,0,0,1,.73-2.52,5.09,5.09,0,0,1,2.24-1.81,9.22,9.22,0,0,1,3.75-.67,10.83,10.83,0,0,1,3.06.43,8.76,8.76,0,0,1,2.6,1.18l-.65,1.54a9.07,9.07,0,0,0-2.45-1.13,8.88,8.88,0,0,0-2.56-.38,6,6,0,0,0-3.61.92,2.89,2.89,0,0,0-1.21,2.39,2.37,2.37,0,0,0,.67,1.76,4.26,4.26,0,0,0,1.66,1c.67.24,1.57.49,2.7.77a27.6,27.6,0,0,1,3.25,1,5.31,5.31,0,0,1,2.09,1.46,3.82,3.82,0,0,1,.86,2.64,4.48,4.48,0,0,1-.74,2.52,5,5,0,0,1-2.28,1.8,9.55,9.55,0,0,1-3.78.66A11.81,11.81,0,0,1,406.87,120.68Z"/><path class="cls-1" d="M438.43,104.6H432v-1.67h14.75v1.67h-6.41v16.57h-1.93Z"/><path class="cls-1" d="M474.92,121.17l-4.17-5.86a13.83,13.83,0,0,1-1.46.08h-4.9v5.78h-1.93V102.93h6.83a8.24,8.24,0,0,1,5.47,1.67,5.68,5.68,0,0,1,2,4.59,5.64,5.64,0,0,1-4.17,5.73l4.46,6.25Zm-1.54-8.62a4.71,4.71,0,0,0,0-6.76,6.36,6.36,0,0,0-4.14-1.19h-4.85v9.15h4.85A6.31,6.31,0,0,0,473.38,112.55Z"/><path class="cls-1" d="M497,120.12a8.86,8.86,0,0,1-3.44-3.32,9.7,9.7,0,0,1,0-9.49A8.79,8.79,0,0,1,497,104a10.57,10.57,0,0,1,9.8,0,8.73,8.73,0,0,1,3.42,3.32,9.67,9.67,0,0,1,0,9.51,8.8,8.8,0,0,1-3.42,3.32,10.57,10.57,0,0,1-9.8,0Zm8.82-1.49a7,7,0,0,0,2.73-2.71,8,8,0,0,0,0-7.74,7.11,7.11,0,0,0-2.73-2.71,8.39,8.39,0,0,0-7.83,0,7.14,7.14,0,0,0-2.77,2.71,8,8,0,0,0,0,7.74,7.08,7.08,0,0,0,2.77,2.71,8.31,8.31,0,0,0,7.83,0Z"/><path class="cls-1" d="M560.1,116.3H549.93l-2.19,4.87h-2l8.34-18.24H556l8.34,18.24h-2Zm-.71-1.56-4.38-9.8-4.37,9.8Z"/><path class="cls-1" d="M581.68,104.6h-6.41v-1.67H590v1.67h-6.41v16.57h-1.93Z"/><path class="cls-1" d="M618.61,119.51v1.66h-12.9V102.93h12.51v1.67H607.64v6.49h9.44v1.64h-9.44v6.78Z"/><path class="cls-1" d="M635,102.93h1.93v16.58h10.21v1.66H635Z"/><path class="cls-1" d="M662.89,102.93h1.92v18.24h-1.92Z"/><path class="cls-1" d="M695.91,119.51v1.66H683V102.93h12.51v1.67H684.94v6.49h9.43v1.64h-9.43v6.78Z"/><path class="cls-1" d="M724.74,121.17l-4.17-5.86a13.49,13.49,0,0,1-1.45.08h-4.9v5.78h-1.93V102.93h6.83a8.26,8.26,0,0,1,5.47,1.67,5.68,5.68,0,0,1,2,4.59,5.64,5.64,0,0,1-4.17,5.73l4.46,6.25Zm-1.53-8.62a4.71,4.71,0,0,0,0-6.76,6.37,6.37,0,0,0-4.15-1.19h-4.84v9.15h4.84A6.32,6.32,0,0,0,723.21,112.55Z"/></svg>