<svg id="Layer_1" data-name="Layer 1" xmlns="http://www.w3.org/2000/svg" viewBox="0 0 750 150"><defs><style>.cls-1{fill:#fff;}</style></defs><polygon class="cls-1" points="113.49 23.61 54.15 126.39 14.77 126.39 74.11 23.61 113.49 23.61"/><polygon class="cls-1" points="191.76 23.61 132.42 126.39 93.17 126.39 152.51 23.61 191.76 23.61 191.76 23.61"/><line class="cls-1" x1="191.77" y1="23.61" x2="191.76" y2="23.61"/><polygon class="cls-1" points="265.47 126.39 226.44 126.39 195.89 73.46 215.4 39.67 265.47 126.39"/><path class="cls-1" d="M305.46,69l.66-.06q1.78-.21,2.94-3a20.64,20.64,0,0,0,1.28-7.2l.73-18.68a18.59,18.59,0,0,0-.86-6.6c-.62-1.67-1.47-2.58-2.57-2.71l-.6-.06v-.34a4.11,4.11,0,0,1-.06-.92v-.73h12.54l16.3,30.63,13.87-30.63h4.68v-.06h9.05v2l-.6.07c-1.14.13-2,1.13-2.57,3a21.7,21.7,0,0,0-.66,7.16L360.45,60a19.2,19.2,0,0,0,1.45,6.34c.75,1.63,1.67,2.49,2.77,2.58l.66.06v2H346.06v-.72a4.22,4.22,0,0,1,.06-.93V69l.66-.06q1.65-.14,2.58-2.58a19.67,19.67,0,0,0,1-6.4l-.47-23.24L333.51,71.3H331q-4-7.53-8.44-15t-8.45-15l-.6,16.5a26.16,26.16,0,0,0,.23,4.46,13,13,0,0,0,1,3.46A6.59,6.59,0,0,0,316.35,68a3.7,3.7,0,0,0,2.24.93l1,.06a1.22,1.22,0,0,0,.07.33V71H305.46Z"/><path class="cls-1" d="M368.48,69l.66-.06c1.19-.14,2.12-1.13,2.8-3a21.21,21.21,0,0,0,1-7.2V40.94a21.21,21.21,0,0,0-1-7.2c-.68-1.85-1.61-2.84-2.8-3l-.66-.06v-.34a3.39,3.39,0,0,1-.07-.92v-.73h19v1.65a1.28,1.28,0,0,0-.06.34l-.66.06c-1.19.13-2.13,1.12-2.81,3a21.23,21.23,0,0,0-1,7.2V58.76a21.23,21.23,0,0,0,1,7.2c.68,1.84,1.62,2.83,2.81,3l.66.06a1.16,1.16,0,0,0,.06.33V71h-19v-.72a3.48,3.48,0,0,1,.07-.93Z"/><path class="cls-1" d="M390.57,69l.59-.06c1.19-.14,2.14-1.13,2.84-3a20.42,20.42,0,0,0,1.06-7.2V40.94a20.42,20.42,0,0,0-1.06-7.2c-.7-1.85-1.65-2.84-2.84-3l-.59-.06v-.34a3.39,3.39,0,0,1-.07-.92v-.73H410v1.65a1,1,0,0,0-.07.34l-.66.06c-1.19.13-2.12,1.12-2.81,3a21.23,21.23,0,0,0-1,7.2V68.33h4.75a21.05,21.05,0,0,0,4.86-.56,20.44,20.44,0,0,0,4.39-1.58,16.91,16.91,0,0,0,3.69-2.51,14.13,14.13,0,0,0,2.71-3.27l.92-1.39,1.19.4q-.53,2.31-1.05,5.12t-1,5.11L425.62,71H390.5v-.72a3.48,3.48,0,0,1,.07-.93Z"/><path class="cls-1" d="M429.76,69l.59-.06c1.19-.14,2.13-1.13,2.84-3a20.65,20.65,0,0,0,1.06-7.2V40.94a20.65,20.65,0,0,0-1.06-7.2c-.71-1.85-1.65-2.84-2.84-3l-.59-.06v-.34a3.39,3.39,0,0,1-.07-.92v-.73h19.47v1.65a1.28,1.28,0,0,0-.06.34l-.66.06c-1.19.13-2.13,1.12-2.81,3a21.23,21.23,0,0,0-1,7.2V68.33h4.75a21,21,0,0,0,4.85-.56,20.06,20.06,0,0,0,4.39-1.58,16.74,16.74,0,0,0,3.7-2.51A14.13,14.13,0,0,0,465,60.41l.92-1.39,1.19.4c-.35,1.54-.71,3.25-1.06,5.12s-.68,3.57-1,5.11L464.81,71H429.69v-.72a3.48,3.48,0,0,1,.07-.93Z"/><path class="cls-1" d="M468.94,69l.6-.06c1.19-.14,2.13-1.13,2.84-3a20.68,20.68,0,0,0,1.05-7.2V40.94a20.68,20.68,0,0,0-1.05-7.2c-.71-1.85-1.65-2.84-2.84-3l-.6-.06v-.34a4.11,4.11,0,0,1-.06-.92v-.73h35.51l.07,1.33c.09,1.49.16,3.12.23,4.88s.14,3.39.23,4.88a2.17,2.17,0,0,1-.59-.06h-.2l-.66-1.26a9.92,9.92,0,0,0-2.41-3,15.23,15.23,0,0,0-3.6-2.24A20.71,20.71,0,0,0,493,31.86a25.52,25.52,0,0,0-5.08-.5H483.8v17.1a36.42,36.42,0,0,0,8.41-1.22,10.41,10.41,0,0,0,5.05-2.67l.6-.66a1.31,1.31,0,0,0,.46-.07h1.06V56.52h-.53a2.33,2.33,0,0,1-.53-.07h-.46l-.6-.79q-1.38-1.92-5-3a35.4,35.4,0,0,0-8.45-1.39v17.1h4.09a26.53,26.53,0,0,0,5.15-.49,22.5,22.5,0,0,0,4.69-1.46,19,19,0,0,0,3.92-2.27,14.5,14.5,0,0,0,2.94-2.91l.92-1.25a.43.43,0,0,0,.2-.07h.53q-.47,2.25-1,4.89c-.35,1.76-.68,3.39-1,4.88L504,71H468.88v-.72a4.22,4.22,0,0,1,.06-.93Z"/><path class="cls-1" d="M508.58,29.45v-.73h13.79l24,27.27V40.94a21.21,21.21,0,0,0-1-7.2c-.68-1.85-1.61-2.84-2.8-3l-.66-.06v-.34a3.39,3.39,0,0,1-.07-.92v-.73H554v1.65a1.28,1.28,0,0,0-.06.34l-.66.06c-1.19.13-2.13,1.12-2.81,3a21.23,21.23,0,0,0-1,7.2V71h-4.09q-3.37-4.29-7.07-8.42t-7.46-8.18q-3.77-4.06-7.49-8.19t-7.09-8.42V58.76a20.68,20.68,0,0,0,1,7.2c.7,1.84,1.65,2.83,2.84,3l.59.06a1.22,1.22,0,0,0,.07.33V71H508.64V69l.66-.06c1.15-.14,2.07-1.13,2.78-3a20.68,20.68,0,0,0,1-7.2V40.94a20.68,20.68,0,0,0-1-7.2c-.71-1.85-1.63-2.84-2.78-3l-.66-.06v-.34A4.11,4.11,0,0,1,508.58,29.45Z"/><path class="cls-1" d="M556.43,29.45v-.73h13.79l24,27.27V40.94a21.23,21.23,0,0,0-1-7.2c-.68-1.85-1.62-2.84-2.8-3l-.66-.06v-.34a3.39,3.39,0,0,1-.07-.92v-.73h12.21v1.65a1.28,1.28,0,0,0-.06.34l-.66.06c-1.19.13-2.13,1.12-2.81,3a21.23,21.23,0,0,0-1,7.2V71h-4.1q-3.36-4.29-7.06-8.42t-7.46-8.18q-3.76-4.06-7.49-8.19t-7.1-8.42V58.76a20.42,20.42,0,0,0,1.06,7.2c.7,1.84,1.65,2.83,2.84,3l.59.06a.93.93,0,0,0,.07.33V71H556.49V69l.66-.06c1.15-.14,2.07-1.13,2.77-3a20.42,20.42,0,0,0,1.06-7.2V40.94a20.42,20.42,0,0,0-1.06-7.2c-.7-1.85-1.62-2.84-2.77-3l-.66-.06v-.34A4.11,4.11,0,0,1,556.43,29.45Z"/><path class="cls-1" d="M604.8,69l.66-.06c1.19-.14,2.12-1.13,2.81-3a21.23,21.23,0,0,0,1-7.2V40.94a21.23,21.23,0,0,0-1-7.2c-.69-1.85-1.62-2.84-2.81-3l-.66-.06v-.34a4.11,4.11,0,0,1-.06-.92v-.73h19v1.65a1,1,0,0,0-.07.34l-.66.06c-1.19.13-2.12,1.12-2.8,3a21,21,0,0,0-1,7.2V58.76a21,21,0,0,0,1,7.2c.68,1.84,1.61,2.83,2.8,3l.66.06a.93.93,0,0,0,.07.33V71h-19v-.72a4.22,4.22,0,0,1,.06-.93Z"/><path class="cls-1" d="M626.07,28.72h19.47v1.65a1.28,1.28,0,0,0-.06.34l-.6.06c-1.19.13-2.12,1.12-2.8,3a21,21,0,0,0-1,7.2V58.56a9.79,9.79,0,0,0,2.08,6.54q2.08,2.45,7.17,2.44a20.42,20.42,0,0,0,5.9-.73,10.43,10.43,0,0,0,3.93-2,7.48,7.48,0,0,0,2.18-3.2,12.87,12.87,0,0,0,.66-4.26l.07-17a18.29,18.29,0,0,0-1.42-6.8c-.82-1.71-1.88-2.64-3.2-2.77l-.73-.06v-.34a3.88,3.88,0,0,1-.07-.92v-.73h13.67v.2a1.27,1.27,0,0,0-.07.53v1.26l-.72.06q-2,.19-3.17,3.14a20.65,20.65,0,0,0-1.19,7.69V58.36a14.79,14.79,0,0,1-.92,5.35,9.71,9.71,0,0,1-3,4.06,14.93,14.93,0,0,1-5.38,2.61,30.48,30.48,0,0,1-8.05.92,29.34,29.34,0,0,1-8.42-1,15.1,15.1,0,0,1-5.64-3,10.73,10.73,0,0,1-3.14-4.68,18.7,18.7,0,0,1-1-6.14V40.94a21.23,21.23,0,0,0-1-7.2c-.68-1.85-1.62-2.84-2.8-3l-.66-.06a1.37,1.37,0,0,0-.07-.34V28.72Z"/><path class="cls-1" d="M672.75,69l.66-.06q1.79-.21,2.94-3a20.62,20.62,0,0,0,1.29-7.2l.72-18.68a18.61,18.61,0,0,0-.85-6.6c-.62-1.67-1.48-2.58-2.58-2.71l-.59-.06v-.34a3.39,3.39,0,0,1-.07-.92v-.73h12.54l16.31,30.63L717,28.72h4.69v-.06h9v2l-.59.07q-1.73.2-2.58,3a21.7,21.7,0,0,0-.66,7.16L727.74,60a19.2,19.2,0,0,0,1.45,6.34c.75,1.63,1.67,2.49,2.78,2.58l.65.06v2H713.35v-.72a3.48,3.48,0,0,1,.07-.93V69l.66-.06c1.1-.09,1.95-1,2.57-2.58a19.14,19.14,0,0,0,1-6.4l-.46-23.24L700.81,71.3H698.3q-4-7.53-8.45-15t-8.45-15l-.59,16.5a25.17,25.17,0,0,0,.23,4.46,12.67,12.67,0,0,0,1,3.46A6.59,6.59,0,0,0,683.64,68a3.72,3.72,0,0,0,2.25.93l1,.06a1.16,1.16,0,0,0,.06.33V71H672.75Z"/><path class="cls-1" d="M311.87,104.61h-6.41v-1.67h14.75v1.67H313.8v16.57h-1.93Z"/><path class="cls-1" d="M348.36,121.18l-4.17-5.86a13.83,13.83,0,0,1-1.46.08h-4.9v5.78H335.9V102.94h6.83a8.26,8.26,0,0,1,5.47,1.67,5.68,5.68,0,0,1,2,4.59,5.64,5.64,0,0,1-4.17,5.73l4.46,6.25Zm-1.54-8.62a4.71,4.71,0,0,0,0-6.76,6.37,6.37,0,0,0-4.15-1.19h-4.84v9.15h4.84A6.32,6.32,0,0,0,346.82,112.56Z"/><path class="cls-1" d="M379.69,116.31H369.53l-2.19,4.87h-2l8.34-18.24h1.9l8.34,18.24h-2Zm-.7-1.56-4.38-9.8-4.38,9.8Z"/><path class="cls-1" d="M399.58,102.94H407a10.91,10.91,0,0,1,5.11,1.16,8.51,8.51,0,0,1,3.44,3.23,9.71,9.71,0,0,1,0,9.46,8.45,8.45,0,0,1-3.44,3.23,10.79,10.79,0,0,1-5.11,1.16h-7.42Zm7.32,16.58a8.84,8.84,0,0,0,4.19-1,7,7,0,0,0,2.79-2.64,8.06,8.06,0,0,0,0-7.74,6.94,6.94,0,0,0-2.79-2.63,8.84,8.84,0,0,0-4.19-1h-5.4v14.91Z"/><path class="cls-1" d="M446.51,119.52v1.66h-12.9V102.94h12.51v1.67H435.54v6.49H445v1.64h-9.43v6.78Z"/><path class="cls-1" d="M485.06,120.69a7.17,7.17,0,0,1-2.88-1.72l.76-1.49a7.3,7.3,0,0,0,2.63,1.61,9.55,9.55,0,0,0,3.39.61,6.19,6.19,0,0,0,3.67-.9,2.77,2.77,0,0,0,1.23-2.33,2.33,2.33,0,0,0-.67-1.75,4.4,4.4,0,0,0-1.63-1,24.87,24.87,0,0,0-2.68-.77,28.73,28.73,0,0,1-3.28-1,5.47,5.47,0,0,1-2.1-1.48,3.91,3.91,0,0,1-.88-2.68,4.58,4.58,0,0,1,.73-2.51,5.07,5.07,0,0,1,2.25-1.82,9.15,9.15,0,0,1,3.75-.67,10.93,10.93,0,0,1,3.06.43A8.69,8.69,0,0,1,495,104.4l-.65,1.54a9.31,9.31,0,0,0-5-1.51,6,6,0,0,0-3.61.92,2.87,2.87,0,0,0-1.21,2.39,2.4,2.4,0,0,0,.66,1.76,4.3,4.3,0,0,0,1.67,1c.67.24,1.57.49,2.7.77a27.36,27.36,0,0,1,3.24,1,5.28,5.28,0,0,1,2.1,1.46,3.87,3.87,0,0,1,.86,2.64,4.56,4.56,0,0,1-.74,2.52,5.13,5.13,0,0,1-2.28,1.8,9.62,9.62,0,0,1-3.78.66A11.82,11.82,0,0,1,485.06,120.69Z"/><path class="cls-1" d="M515.66,120.13a8.93,8.93,0,0,1-3.44-3.32,9.7,9.7,0,0,1,0-9.49,8.86,8.86,0,0,1,3.44-3.32,10.57,10.57,0,0,1,9.8,0,8.83,8.83,0,0,1,3.43,3.32,9.67,9.67,0,0,1,0,9.51,8.9,8.9,0,0,1-3.43,3.32,10.57,10.57,0,0,1-9.8,0Zm8.82-1.49a7,7,0,0,0,2.74-2.71,8.06,8.06,0,0,0,0-7.74,7.13,7.13,0,0,0-2.74-2.71,8.39,8.39,0,0,0-7.83,0,7.26,7.26,0,0,0-2.76,2.71,8,8,0,0,0,0,7.74,7.12,7.12,0,0,0,2.76,2.71,8.31,8.31,0,0,0,7.83,0Z"/><path class="cls-1" d="M547,102.94h1.93v16.58h10.21v1.66H547Z"/><path class="cls-1" d="M575.85,119.31a8.16,8.16,0,0,1-2-5.92V102.94h1.93v10.37a6.83,6.83,0,0,0,1.43,4.75,6.31,6.31,0,0,0,8.31,0,6.83,6.83,0,0,0,1.44-4.75V102.94h1.87v10.45a8.16,8.16,0,0,1-2,5.92,8.51,8.51,0,0,1-11,0Z"/><path class="cls-1" d="M610.88,104.61h-6.41v-1.67h14.75v1.67h-6.41v16.57h-1.93Z"/><path class="cls-1" d="M634.91,102.94h1.93v18.24h-1.93Z"/><path class="cls-1" d="M658.39,120.13a8.86,8.86,0,0,1-3.44-3.32,9.7,9.7,0,0,1,0-9.49,8.79,8.79,0,0,1,3.44-3.32,10.54,10.54,0,0,1,9.79,0,8.69,8.69,0,0,1,3.43,3.32,9.67,9.67,0,0,1,0,9.51,8.76,8.76,0,0,1-3.43,3.32,10.54,10.54,0,0,1-9.79,0Zm8.82-1.49a7,7,0,0,0,2.73-2.71,8.06,8.06,0,0,0,0-7.74,7.18,7.18,0,0,0-2.73-2.71,8.39,8.39,0,0,0-7.83,0,7.21,7.21,0,0,0-2.77,2.71,8,8,0,0,0,0,7.74,7.08,7.08,0,0,0,2.77,2.71,8.31,8.31,0,0,0,7.83,0Z"/><path class="cls-1" d="M704.94,102.94v18.24h-1.59l-11.73-14.8v14.8h-1.93V102.94h1.59L703,117.74v-14.8Z"/><path class="cls-1" d="M724.53,120.69a7.17,7.17,0,0,1-2.88-1.72l.76-1.49a7.21,7.21,0,0,0,2.63,1.61,9.55,9.55,0,0,0,3.39.61,6.19,6.19,0,0,0,3.67-.9,2.77,2.77,0,0,0,1.23-2.33,2.37,2.37,0,0,0-.67-1.75,4.4,4.4,0,0,0-1.63-1,25.58,25.58,0,0,0-2.68-.77,29.65,29.65,0,0,1-3.29-1,5.51,5.51,0,0,1-2.09-1.48,3.87,3.87,0,0,1-.88-2.68,4.58,4.58,0,0,1,.73-2.51,5.1,5.1,0,0,1,2.24-1.82,9.23,9.23,0,0,1,3.76-.67,10.93,10.93,0,0,1,3.06.43,8.69,8.69,0,0,1,2.59,1.18l-.65,1.54a9.31,9.31,0,0,0-5-1.51,6,6,0,0,0-3.61.92,2.87,2.87,0,0,0-1.21,2.39,2.4,2.4,0,0,0,.66,1.76,4.3,4.3,0,0,0,1.67,1c.67.24,1.57.49,2.7.77a27.36,27.36,0,0,1,3.24,1,5.35,5.35,0,0,1,2.1,1.46,3.87,3.87,0,0,1,.86,2.64,4.56,4.56,0,0,1-.74,2.52,5.13,5.13,0,0,1-2.28,1.8,9.62,9.62,0,0,1-3.78.66A11.82,11.82,0,0,1,724.53,120.69Z"/></svg>