<svg id="Layer_1" data-name="Layer 1" xmlns="http://www.w3.org/2000/svg" viewBox="0 0 450 250"><defs><style>.cls-1{fill:#fff;}</style></defs><polygon class="cls-1" points="198.37 7.31 139.03 110.09 99.65 110.09 158.99 7.31 198.37 7.31"/><polygon class="cls-1" points="276.64 7.32 217.3 110.09 178.05 110.09 237.39 7.31 276.64 7.31 276.64 7.32"/><line class="cls-1" x1="276.65" y1="7.31" x2="276.64" y2="7.32"/><polygon class="cls-1" points="350.35 110.09 311.32 110.09 280.77 57.16 300.27 23.37 350.35 110.09"/><path class="cls-1" d="M11.42,190.34l.66-.07c1.19-.13,2.16-1.12,2.93-3a20.56,20.56,0,0,0,1.29-7.19L17,161.43a18.68,18.68,0,0,0-.86-6.61c-.62-1.67-1.48-2.57-2.57-2.7l-.6-.07v-.33a4,4,0,0,1-.07-.92v-.73H25.48l16.3,30.63,13.86-30.63h4.69V150h9v2l-.59.06c-1.14.13-2,1.14-2.57,3a21.15,21.15,0,0,0-.66,7.16l.85,19.14a19.18,19.18,0,0,0,1.46,6.34c.74,1.63,1.67,2.48,2.77,2.57l.66.07v2H52v-.73a4,4,0,0,1,.07-.92v-.33l.66-.07c1.1-.09,2-.94,2.57-2.57a19.16,19.16,0,0,0,1-6.41l-.46-23.23L39.47,192.65H37q-4-7.53-8.45-15t-8.45-15l-.59,16.51a26,26,0,0,0,.23,4.45,13,13,0,0,0,1,3.47,6.59,6.59,0,0,0,1.65,2.31,3.63,3.63,0,0,0,2.24.92l1,.07a.93.93,0,0,0,.07.33v1.65H11.42Z"/><path class="cls-1" d="M74.44,190.34l.66-.07c1.18-.13,2.12-1.12,2.8-3a21.17,21.17,0,0,0,1-7.19V162.28a21.21,21.21,0,0,0-1-7.19c-.68-1.85-1.62-2.84-2.8-3l-.66-.07v-.33a3.44,3.44,0,0,1-.07-.92v-.73h19v1.65a1.22,1.22,0,0,0-.07.33l-.66.07c-1.18.13-2.12,1.12-2.8,3a21.21,21.21,0,0,0-1,7.19v17.83a21.17,21.17,0,0,0,1,7.19c.68,1.85,1.62,2.84,2.8,3l.66.07a1.22,1.22,0,0,0,.07.33v1.65h-19v-.73a3.44,3.44,0,0,1,.07-.92Z"/><path class="cls-1" d="M96.53,190.34l.59-.07c1.19-.13,2.14-1.12,2.84-3a20.59,20.59,0,0,0,1.06-7.19V162.28a20.63,20.63,0,0,0-1.06-7.19c-.7-1.85-1.65-2.84-2.84-3l-.59-.07v-.33a3.44,3.44,0,0,1-.07-.92v-.73h19.47v1.65a1.16,1.16,0,0,0-.06.33l-.66.07c-1.19.13-2.13,1.12-2.81,3a21.21,21.21,0,0,0-1,7.19v27.4h4.75a21,21,0,0,0,4.85-.56,20.08,20.08,0,0,0,4.39-1.59,16.4,16.4,0,0,0,3.7-2.51,14.29,14.29,0,0,0,2.71-3.26l.92-1.39,1.19.4q-.52,2.31-1.06,5.11t-1,5.12l-.26,1.32H96.46v-.73a3.44,3.44,0,0,1,.07-.92Z"/><path class="cls-1" d="M135.72,190.34l.59-.07c1.19-.13,2.13-1.12,2.84-3a20.61,20.61,0,0,0,1-7.19V162.28a20.65,20.65,0,0,0-1-7.19c-.71-1.85-1.65-2.84-2.84-3l-.59-.07v-.33a3.44,3.44,0,0,1-.07-.92v-.73h19.47v1.65a1.16,1.16,0,0,0-.06.33l-.66.07c-1.19.13-2.13,1.12-2.81,3a21.21,21.21,0,0,0-1,7.19v27.4h4.75a21,21,0,0,0,4.85-.56,20.27,20.27,0,0,0,4.39-1.59,16.4,16.4,0,0,0,3.7-2.51,14.29,14.29,0,0,0,2.71-3.26l.92-1.39,1.19.4q-.54,2.31-1.06,5.11T171,191l-.26,1.32H135.65v-.73a3.44,3.44,0,0,1,.07-.92Z"/><path class="cls-1" d="M174.9,190.34l.6-.07c1.19-.13,2.13-1.12,2.84-3a20.61,20.61,0,0,0,1-7.19V162.28a20.65,20.65,0,0,0-1-7.19c-.71-1.85-1.65-2.84-2.84-3l-.6-.07v-.33a4.17,4.17,0,0,1-.06-.92v-.73h35.51l.07,1.32c.08,1.5.16,3.13.23,4.89s.14,3.39.23,4.88a2.17,2.17,0,0,1-.59-.06h-.2l-.66-1.26a10.08,10.08,0,0,0-2.41-3,15.11,15.11,0,0,0-3.6-2.24,20.71,20.71,0,0,0-4.49-1.42,25.52,25.52,0,0,0-5.08-.5h-4.09v17.1a36.42,36.42,0,0,0,8.41-1.22,10.46,10.46,0,0,0,5.05-2.68l.6-.66a1.6,1.6,0,0,0,.46-.06h1.05v12.67h-.52a2.33,2.33,0,0,1-.53-.06h-.46l-.6-.8a9.48,9.48,0,0,0-5-3,35.48,35.48,0,0,0-8.45-1.39v17.1h4.09a26.61,26.61,0,0,0,5.15-.5,22.21,22.21,0,0,0,4.68-1.45,19.27,19.27,0,0,0,3.93-2.28,14.72,14.72,0,0,0,2.94-2.9l.92-1.26a.53.53,0,0,0,.2-.06h.53c-.31,1.5-.64,3.12-1,4.88s-.68,3.39-1,4.89l-.26,1.32H174.84v-.73a4.17,4.17,0,0,1,.06-.92Z"/><path class="cls-1" d="M214.54,150.8v-.73h13.79l24,27.26V162.28a21.21,21.21,0,0,0-1-7.19c-.68-1.85-1.62-2.84-2.8-3l-.66-.07v-.33a3.44,3.44,0,0,1-.07-.92v-.73H260v1.65a1.16,1.16,0,0,0-.06.33l-.66.07c-1.19.13-2.13,1.12-2.81,3a21.21,21.21,0,0,0-1,7.19v30.1h-4.1q-3.36-4.29-7.06-8.41t-7.46-8.19q-3.76-4-7.49-8.18t-7.1-8.42v20.93a20.59,20.59,0,0,0,1.06,7.19c.7,1.85,1.65,2.84,2.84,3l.59.07a.93.93,0,0,0,.07.33v1.65H214.6v-2l.66-.07c1.15-.13,2.07-1.12,2.77-3a20.36,20.36,0,0,0,1.06-7.19V162.28a20.4,20.4,0,0,0-1.06-7.19c-.7-1.85-1.62-2.84-2.77-3l-.66-.07v-.33A4.17,4.17,0,0,1,214.54,150.8Z"/><path class="cls-1" d="M262.38,150.8v-.73h13.8l24,27.26V162.28a21.21,21.21,0,0,0-1-7.19c-.68-1.85-1.62-2.84-2.81-3l-.66-.07v-.33a4.17,4.17,0,0,1-.06-.92v-.73H307.8v1.65a1.22,1.22,0,0,0-.07.33l-.66.07c-1.18.13-2.12,1.12-2.8,3a21.21,21.21,0,0,0-1,7.19v30.1h-4.1q-3.36-4.29-7.06-8.41t-7.46-8.19q-3.76-4-7.49-8.18t-7.1-8.42v20.93a20.36,20.36,0,0,0,1.06,7.19c.7,1.85,1.65,2.84,2.84,3l.59.07a.93.93,0,0,0,.07.33v1.65H262.45v-2l.66-.07c1.14-.13,2.07-1.12,2.77-3a20.36,20.36,0,0,0,1.06-7.19V162.28a20.4,20.4,0,0,0-1.06-7.19c-.7-1.85-1.63-2.84-2.77-3l-.66-.07v-.33A4,4,0,0,1,262.38,150.8Z"/><path class="cls-1" d="M310.76,190.34l.66-.07c1.19-.13,2.12-1.12,2.81-3a21.17,21.17,0,0,0,1-7.19V162.28a21.21,21.21,0,0,0-1-7.19c-.69-1.85-1.62-2.84-2.81-3l-.66-.07v-.33a4,4,0,0,1-.07-.92v-.73h19v1.65a.93.93,0,0,0-.07.33l-.66.07c-1.19.13-2.12,1.12-2.81,3a21.21,21.21,0,0,0-1,7.19v17.83a21.17,21.17,0,0,0,1,7.19c.69,1.85,1.62,2.84,2.81,3l.66.07a.93.93,0,0,0,.07.33v1.65h-19v-.73a4,4,0,0,1,.07-.92Z"/><path class="cls-1" d="M332,150.07H351.5v1.65a1.22,1.22,0,0,0-.07.33l-.59.07c-1.19.13-2.12,1.12-2.8,3a20.94,20.94,0,0,0-1,7.19v17.63a9.74,9.74,0,0,0,2.08,6.53c1.39,1.63,3.77,2.45,7.16,2.45a20.8,20.8,0,0,0,5.91-.73,10.44,10.44,0,0,0,3.93-2,7.42,7.42,0,0,0,2.18-3.2,12.79,12.79,0,0,0,.66-4.26l.06-17a18.06,18.06,0,0,0-1.41-6.8c-.82-1.72-1.89-2.64-3.21-2.77l-.72-.07v-.33a3.44,3.44,0,0,1-.07-.92v-.73h13.67v.2a1.24,1.24,0,0,0-.07.53v1.25l-.73.07c-1.32.13-2.37,1.18-3.17,3.13a20.88,20.88,0,0,0-1.18,7.69v16.77a14.61,14.61,0,0,1-.93,5.35,9.66,9.66,0,0,1-3,4.06,14.76,14.76,0,0,1-5.38,2.6,30,30,0,0,1-8.05.93,28.92,28.92,0,0,1-8.42-1.06,14.94,14.94,0,0,1-5.64-3,10.79,10.79,0,0,1-3.14-4.68,18.7,18.7,0,0,1-1-6.14V162.28a21.21,21.21,0,0,0-1-7.19c-.68-1.85-1.62-2.84-2.81-3l-.66-.07a1.16,1.16,0,0,0-.06-.33v-1.65Z"/><path class="cls-1" d="M378.71,190.34l.66-.07q1.78-.2,2.94-3a20.56,20.56,0,0,0,1.29-7.19l.72-18.68a18.46,18.46,0,0,0-.86-6.61c-.61-1.67-1.47-2.57-2.57-2.7l-.59-.07v-.33a3.44,3.44,0,0,1-.07-.92v-.73h12.54l16.31,30.63,13.86-30.63h4.68V150h9.05v2l-.59.06c-1.15.13-2,1.14-2.58,3a21.67,21.67,0,0,0-.66,7.16l.86,19.14a19.2,19.2,0,0,0,1.45,6.34c.75,1.63,1.67,2.48,2.77,2.57l.66.07v2H419.31v-.73a4.17,4.17,0,0,1,.06-.92v-.33l.66-.07c1.1-.09,2-.94,2.58-2.57a19.69,19.69,0,0,0,1-6.41l-.46-23.23-16.37,34.59h-2.51q-4-7.53-8.45-15t-8.45-15l-.6,16.51a25.93,25.93,0,0,0,.24,4.45A12.65,12.65,0,0,0,388,187a6.59,6.59,0,0,0,1.65,2.31,3.63,3.63,0,0,0,2.25.92l1,.07a1.16,1.16,0,0,0,.06.33v1.65H378.71Z"/><path class="cls-1" d="M16.53,226H10.11v-1.67H24.86V226H18.45v16.57H16.53Z"/><path class="cls-1" d="M53,242.53l-4.17-5.86a13.68,13.68,0,0,1-1.46.08h-4.9v5.78H40.56V224.29h6.82A8.27,8.27,0,0,1,52.86,226a5.67,5.67,0,0,1,2,4.58,5.86,5.86,0,0,1-1.09,3.61,6,6,0,0,1-3.08,2.13l4.45,6.25Zm-1.54-8.62a4.7,4.7,0,0,0,0-6.77A6.33,6.33,0,0,0,47.33,226H42.48v9.14h4.85A6.27,6.27,0,0,0,51.47,233.91Z"/><path class="cls-1" d="M84.35,237.66H74.18L72,242.53H70l8.34-18.24h1.9l8.34,18.24h-2Zm-.71-1.57-4.38-9.79-4.37,9.79Z"/><path class="cls-1" d="M104.23,224.29h7.43a10.91,10.91,0,0,1,5.11,1.16,8.51,8.51,0,0,1,3.44,3.23,9.78,9.78,0,0,1,0,9.46,8.51,8.51,0,0,1-3.44,3.23,10.79,10.79,0,0,1-5.11,1.16h-7.43Zm7.33,16.57a8.78,8.78,0,0,0,4.19-1,6.88,6.88,0,0,0,2.79-2.63,8.06,8.06,0,0,0,0-7.74,6.88,6.88,0,0,0-2.79-2.63,8.78,8.78,0,0,0-4.19-.95h-5.4v14.9Z"/><path class="cls-1" d="M151.16,240.86v1.67h-12.9V224.29h12.51V226H140.19v6.49h9.44v1.64h-9.44v6.77Z"/><path class="cls-1" d="M189.72,242a7.28,7.28,0,0,1-2.88-1.72l.75-1.49a7.11,7.11,0,0,0,2.64,1.6,9.54,9.54,0,0,0,3.38.62,6.2,6.2,0,0,0,3.68-.9,2.76,2.76,0,0,0,1.22-2.34,2.32,2.32,0,0,0-.66-1.74,4.35,4.35,0,0,0-1.63-1,23.34,23.34,0,0,0-2.68-.77,26.84,26.84,0,0,1-3.29-1,5.49,5.49,0,0,1-2.1-1.47,3.91,3.91,0,0,1-.87-2.68,4.55,4.55,0,0,1,.73-2.52,5.08,5.08,0,0,1,2.24-1.81,9.23,9.23,0,0,1,3.76-.68,11.31,11.31,0,0,1,3.06.43,9,9,0,0,1,2.59,1.19l-.65,1.54a8.81,8.81,0,0,0-2.45-1.14,9.2,9.2,0,0,0-2.55-.37,5.86,5.86,0,0,0-3.61.92,2.87,2.87,0,0,0-1.22,2.38,2.39,2.39,0,0,0,.67,1.76,4.2,4.2,0,0,0,1.67,1c.67.23,1.56.49,2.69.77a25.81,25.81,0,0,1,3.25,1,5.32,5.32,0,0,1,2.1,1.46,3.87,3.87,0,0,1,.86,2.64,4.43,4.43,0,0,1-.75,2.51,4.9,4.9,0,0,1-2.28,1.8,9.37,9.37,0,0,1-3.78.67A11.81,11.81,0,0,1,189.72,242Z"/><path class="cls-1" d="M220.32,241.48a8.82,8.82,0,0,1-3.44-3.33,9.68,9.68,0,0,1,0-9.48,8.82,8.82,0,0,1,3.44-3.33,10.09,10.09,0,0,1,4.91-1.21,10,10,0,0,1,4.89,1.2,8.87,8.87,0,0,1,3.42,3.32,9.69,9.69,0,0,1,0,9.52,8.87,8.87,0,0,1-3.42,3.32,10,10,0,0,1-4.89,1.2A10.09,10.09,0,0,1,220.32,241.48Zm8.82-1.49a7.13,7.13,0,0,0,2.74-2.71,8.06,8.06,0,0,0,0-7.74,7.2,7.2,0,0,0-2.74-2.71,8.31,8.31,0,0,0-7.83,0,7.05,7.05,0,0,0-2.76,2.71,7.92,7.92,0,0,0,0,7.74,7,7,0,0,0,2.76,2.71,8.31,8.31,0,0,0,7.83,0Z"/><path class="cls-1" d="M251.63,224.29h1.92v16.57h10.22v1.67H251.63Z"/><path class="cls-1" d="M280.51,240.66a8.12,8.12,0,0,1-2-5.92V224.29h1.93v10.37a6.79,6.79,0,0,0,1.44,4.74A5.3,5.3,0,0,0,286,241a5.36,5.36,0,0,0,4.17-1.57,6.84,6.84,0,0,0,1.43-4.74V224.29h1.88v10.45a8.2,8.2,0,0,1-2,5.92,8.51,8.51,0,0,1-11,0Z"/><path class="cls-1" d="M315.53,226h-6.41v-1.67h14.75V226h-6.41v16.57h-1.93Z"/><path class="cls-1" d="M339.56,224.29h1.93v18.24h-1.93Z"/><path class="cls-1" d="M363,241.48a8.88,8.88,0,0,1-3.44-3.33,9.75,9.75,0,0,1,0-9.48,8.88,8.88,0,0,1,3.44-3.33,10.13,10.13,0,0,1,4.92-1.21,9.94,9.94,0,0,1,4.88,1.2,9,9,0,0,1,3.43,3.32,9.69,9.69,0,0,1,0,9.52,9,9,0,0,1-3.43,3.32,9.94,9.94,0,0,1-4.88,1.2A10.13,10.13,0,0,1,363,241.48Zm8.82-1.49a7,7,0,0,0,2.74-2.71,8.06,8.06,0,0,0,0-7.74,7.07,7.07,0,0,0-2.74-2.71,7.84,7.84,0,0,0-3.9-1,8,8,0,0,0-3.93,1,7.19,7.19,0,0,0-2.76,2.71,8,8,0,0,0,0,7.74A7.12,7.12,0,0,0,364,240a8,8,0,0,0,3.93,1A7.84,7.84,0,0,0,371.86,240Z"/><path class="cls-1" d="M409.6,224.29v18.24H408l-11.73-14.8v14.8h-1.93V224.29h1.59l11.75,14.8v-14.8Z"/><path class="cls-1" d="M429.19,242a7.28,7.28,0,0,1-2.88-1.72l.75-1.49a7.11,7.11,0,0,0,2.64,1.6,9.54,9.54,0,0,0,3.38.62,6.2,6.2,0,0,0,3.68-.9,2.76,2.76,0,0,0,1.22-2.34,2.32,2.32,0,0,0-.66-1.74,4.35,4.35,0,0,0-1.63-1,23.34,23.34,0,0,0-2.68-.77,26.84,26.84,0,0,1-3.29-1,5.49,5.49,0,0,1-2.1-1.47,3.91,3.91,0,0,1-.87-2.68,4.55,4.55,0,0,1,.73-2.52,5,5,0,0,1,2.24-1.81,9.23,9.23,0,0,1,3.76-.68,11.31,11.31,0,0,1,3.06.43,9,9,0,0,1,2.59,1.19l-.65,1.54a8.81,8.81,0,0,0-2.45-1.14,9.2,9.2,0,0,0-2.55-.37,5.86,5.86,0,0,0-3.61.92,2.87,2.87,0,0,0-1.22,2.38,2.35,2.35,0,0,0,.67,1.76,4.2,4.2,0,0,0,1.67,1c.66.23,1.56.49,2.69.77a25.81,25.81,0,0,1,3.25,1,5.32,5.32,0,0,1,2.1,1.46,3.87,3.87,0,0,1,.86,2.64,4.43,4.43,0,0,1-.75,2.51,4.9,4.9,0,0,1-2.28,1.8,9.37,9.37,0,0,1-3.78.67A11.81,11.81,0,0,1,429.19,242Z"/></svg>