<svg width="1818" height="144" viewBox="0 0 1818 144" fill="none" xmlns="http://www.w3.org/2000/svg">
<path d="M134.4 23.6V142H107L34.4 34.6V120.4C34.4 127 37.8 130 42.2 130H52.8V142H0.8V130H10.8C15.2 130 18.6 127 18.6 120.4V23.6C18.6 17 15.2 14 10.8 14H0.8V1.99999H55.4L118.6 93.6V23.6C118.6 17 115.6 14 111.6 14H101.2V1.99999H152.2V14H142.2C137.8 14 134.4 17 134.4 23.6ZM216.533 63.4H229.133C239.733 63.4 244.733 59.2 244.733 50V43H256.733V95.2H244.733V88.2C244.733 79 239.733 74.8 229.133 74.8H216.533V119.8C216.533 127 219.933 130 228.933 130H238.933C268.533 130 274.333 122.2 278.533 90.6H291.733V142H161.933V130H171.933C176.333 130 179.733 127 179.733 120.4V23.6C179.733 17 176.333 14 171.933 14H161.933V1.99999H291.733V50.2H278.533C274.333 18.8 268.533 14 238.933 14H216.533V63.4ZM506.966 24.4L476.366 142H440.366L416.566 56.6L391.566 142H354.966L325.166 24.8C323.366 17.6 320.966 14 315.566 14H306.966V1.99999H376.766V14H368.366C363.966 14 361.966 17.4 363.566 24.2L385.166 113.2L409.166 30L407.566 24.8C405.566 17.6 403.566 14 398.766 14H391.566V1.99999H458.566V14H449.966C445.566 14 443.566 17.4 445.366 24.2L468.766 112L490.766 24.2C492.766 16.2 490.966 14 486.166 14H478.166V1.99999H524.966V14H515.766C511.366 14 508.966 17.2 506.966 24.4ZM661.422 100C661.422 128 636.222 144 606.022 144C584.622 144 568.422 136.4 555.222 123.6L553.622 142H539.422V92.2H553.822C560.422 115.2 579.422 131 602.422 131C616.422 131 626.022 125.6 626.022 113C626.022 98.8 612.822 92.6 591.022 86.4C565.222 78.8 540.022 70 540.022 41.6C540.022 16.6 562.422 -7.62939e-06 592.822 -7.62939e-06C611.022 -7.62939e-06 625.222 6.39999 636.222 17.2L638.422 1.99999H652.422V48.6H638.022C633.222 25.8 615.822 13 594.622 13C581.422 13 573.022 18.8 573.022 30C573.022 42 585.422 47.2 605.422 53C634.022 61.2 661.422 70.4 661.422 100ZM813.983 142L802.783 127C790.183 137.2 777.983 144 761.983 144C743.983 144 718.383 134.2 718.383 105.8C718.383 91 729.183 77.2 758.583 66C751.983 54.8 748.383 45.2 748.383 35.6C748.383 14.8 763.183 -7.62939e-06 789.383 -7.62939e-06C808.983 -7.62939e-06 827.983 10.2 827.983 27.8C827.983 43.4 816.583 55.4 794.183 63.4L820.983 99.8L835.783 80.8C843.183 72 841.783 69.8 836.783 69.8H829.383V58H876.383V69.8H868.983C859.783 69.8 857.783 71.6 849.983 80.8L827.183 108.4L831.783 114.6C840.783 127 844.583 129.8 859.183 129.8H867.583V142H813.983ZM779.583 30C779.583 37.6 782.783 46.2 788.983 56C797.583 50.2 806.583 41 806.583 26.6C806.583 16.6 801.783 11.2 793.383 11.2C785.183 11.2 779.583 18.4 779.583 30ZM750.983 100.2C750.983 114.8 760.183 128.4 775.783 128.4C784.783 128.4 791.383 123.6 796.583 118.6L784.783 103.2C779.183 95.4 771.183 85.8 764.183 75.4C754.983 81.4 750.983 89.6 750.983 100.2ZM984.697 63.4H997.297C1007.9 63.4 1012.9 59.2 1012.9 50V43H1024.9V95.2H1012.9V88.2C1012.9 79 1007.9 74.8 997.297 74.8H984.697V119.8C984.697 127 988.097 130 997.097 130H1007.1C1036.7 130 1042.5 122.2 1046.7 90.6H1059.9V142H930.097V130H940.097C944.497 130 947.897 127 947.897 120.4V23.6C947.897 17 944.497 14 940.097 14H930.097V1.99999H1059.9V50.2H1046.7C1042.5 18.8 1036.7 14 1007.1 14H984.697V63.4ZM1206.73 24.4L1167.73 142H1131.13L1093.13 24.8C1090.73 17.6 1088.93 14 1084.13 14H1074.93V1.99999H1146.33V14H1136.13C1131.73 14 1129.33 17.4 1131.53 24.2L1160.73 117.4L1190.53 24.2C1192.93 16.2 1190.73 14 1185.73 14H1175.93V1.99999H1224.73V14H1215.53C1211.13 14 1209.13 17.2 1206.73 24.4ZM1287.04 63.4H1299.64C1310.24 63.4 1315.24 59.2 1315.24 50V43H1327.24V95.2H1315.24V88.2C1315.24 79 1310.24 74.8 1299.64 74.8H1287.04V119.8C1287.04 127 1290.44 130 1299.44 130H1309.44C1339.04 130 1344.84 122.2 1349.04 90.6H1362.24V142H1232.44V130H1242.44C1246.84 130 1250.24 127 1250.24 120.4V23.6C1250.24 17 1246.84 14 1242.44 14H1232.44V1.99999H1362.24V50.2H1349.04C1344.84 18.8 1339.04 14 1309.44 14H1287.04V63.4ZM1514.67 23.6V142H1487.27L1414.67 34.6V120.4C1414.67 127 1418.07 130 1422.47 130H1433.07V142H1381.07V130H1391.07C1395.47 130 1398.87 127 1398.87 120.4V23.6C1398.87 17 1395.47 14 1391.07 14H1381.07V1.99999H1435.67L1498.87 93.6V23.6C1498.87 17 1495.87 14 1491.87 14H1481.47V1.99999H1532.47V14H1522.47C1518.07 14 1514.67 17 1514.67 23.6ZM1649.41 130V142H1570.21V130H1583.61C1588.01 130 1591.41 127 1591.41 120.4V14H1587.61C1563.21 14 1560.21 19.6 1555.41 53.2H1542.21V1.99999H1677.21V53.2H1664.21C1659.41 19.6 1656.21 14 1632.01 14H1628.21V120.4C1628.21 127 1631.61 130 1636.01 130H1649.41ZM1817.28 100C1817.28 128 1792.08 144 1761.88 144C1740.48 144 1724.28 136.4 1711.08 123.6L1709.48 142H1695.28V92.2H1709.68C1716.28 115.2 1735.28 131 1758.28 131C1772.28 131 1781.88 125.6 1781.88 113C1781.88 98.8 1768.68 92.6 1746.88 86.4C1721.08 78.8 1695.88 70 1695.88 41.6C1695.88 16.6 1718.28 -7.62939e-06 1748.68 -7.62939e-06C1766.88 -7.62939e-06 1781.08 6.39999 1792.08 17.2L1794.28 1.99999H1808.28V48.6H1793.88C1789.08 25.8 1771.68 13 1750.48 13C1737.28 13 1728.88 18.8 1728.88 30C1728.88 42 1741.28 47.2 1761.28 53C1789.88 61.2 1817.28 70.4 1817.28 100Z" fill="#CC9D65"/>
</svg>
